<svg width="23" height="25" viewBox="0 0 23 25" fill="none" xmlns="http://www.w3.org/2000/svg">
<path d="M6.30562 19.4444C6.66294 19.4444 6.96246 19.3113 7.20417 19.0451C7.44589 18.7789 7.56675 18.4491 7.56675 18.0556C7.56675 17.662 7.44589 17.3322 7.20417 17.066C6.96246 16.7998 6.66294 16.6667 6.30562 16.6667C5.9483 16.6667 5.64879 16.7998 5.40707 17.066C5.16536 17.3322 5.0445 17.662 5.0445 18.0556C5.0445 18.4491 5.16536 18.7789 5.40707 19.0451C5.64879 19.3113 5.9483 19.4444 6.30562 19.4444ZM6.30562 13.8889C6.66294 13.8889 6.96246 13.7558 7.20417 13.4896C7.44589 13.2234 7.56675 12.8935 7.56675 12.5C7.56675 12.1065 7.44589 11.7766 7.20417 11.5104C6.96246 11.2442 6.66294 11.1111 6.30562 11.1111C5.9483 11.1111 5.64879 11.2442 5.40707 11.5104C5.16536 11.7766 5.0445 12.1065 5.0445 12.5C5.0445 12.8935 5.16536 13.2234 5.40707 13.4896C5.64879 13.7558 5.9483 13.8889 6.30562 13.8889ZM6.30562 8.33333C6.66294 8.33333 6.96246 8.20023 7.20417 7.93403C7.44589 7.66782 7.56675 7.33796 7.56675 6.94444C7.56675 6.55093 7.44589 6.22107 7.20417 5.95486C6.96246 5.68866 6.66294 5.55556 6.30562 5.55556C5.9483 5.55556 5.64879 5.68866 5.40707 5.95486C5.16536 6.22107 5.0445 6.55093 5.0445 6.94444C5.0445 7.33796 5.16536 7.66782 5.40707 7.93403C5.64879 8.20023 5.9483 8.33333 6.30562 8.33333ZM10.089 19.4444H17.6557V16.6667H10.089V19.4444ZM10.089 13.8889H17.6557V11.1111H10.089V13.8889ZM10.089 8.33333H17.6557V5.55556H10.089V8.33333ZM2.52225 25C1.82863 25 1.23485 24.728 0.740911 24.184C0.24697 23.64 0 22.9861 0 22.2222V2.77778C0 2.01389 0.24697 1.35995 0.740911 0.815972C1.23485 0.271991 1.82863 0 2.52225 0H20.178C20.8716 0 21.4654 0.271991 21.9593 0.815972C22.4533 1.35995 22.7002 2.01389 22.7002 2.77778V22.2222C22.7002 22.9861 22.4533 23.64 21.9593 24.184C21.4654 24.728 20.8716 25 20.178 25H2.52225ZM2.52225 22.2222H20.178V2.77778H2.52225V22.2222Z" fill="white"/>
</svg>
