<svg width="37" height="35" viewBox="0 0 37 35" fill="none" xmlns="http://www.w3.org/2000/svg">
<path d="M18.4998 17.5C15.979 17.5 13.821 16.6677 12.0259 15.0031C10.2307 13.3385 9.33317 11.3375 9.33317 9C9.33317 6.6625 10.2307 4.66146 12.0259 2.99688C13.821 1.33229 15.979 0.5 18.4998 0.5C21.0207 0.5 23.1787 1.33229 24.9738 2.99688C26.7689 4.66146 27.6665 6.6625 27.6665 9C27.6665 11.3375 26.7689 13.3385 24.9738 15.0031C23.1787 16.6677 21.0207 17.5 18.4998 17.5ZM0.166504 34.5V28.55C0.166504 27.3458 0.500705 26.2391 1.16911 25.2297C1.83751 24.2203 2.72553 23.45 3.83317 22.9188C6.20123 21.8208 8.60748 20.9974 11.0519 20.4484C13.4964 19.8995 15.979 19.625 18.4998 19.625C21.0207 19.625 23.5033 19.8995 25.9478 20.4484C28.3922 20.9974 30.7984 21.8208 33.1665 22.9188C34.2741 23.45 35.1622 24.2203 35.8306 25.2297C36.499 26.2391 36.8332 27.3458 36.8332 28.55V34.5H0.166504ZM4.74984 30.25H32.2498V28.55C32.2498 28.1604 32.1448 27.8063 31.9347 27.4875C31.7247 27.1688 31.4478 26.9208 31.104 26.7438C29.0415 25.7875 26.9599 25.0703 24.8592 24.5922C22.7585 24.1141 20.6387 23.875 18.4998 23.875C16.3609 23.875 14.2412 24.1141 12.1405 24.5922C10.0398 25.0703 7.95817 25.7875 5.89567 26.7438C5.55192 26.9208 5.27501 27.1688 5.06494 27.4875C4.85487 27.8063 4.74984 28.1604 4.74984 28.55V30.25ZM18.4998 13.25C19.7603 13.25 20.8392 12.8339 21.7368 12.0016C22.6344 11.1693 23.0832 10.1687 23.0832 9C23.0832 7.83125 22.6344 6.83073 21.7368 5.99844C20.8392 5.16615 19.7603 4.75 18.4998 4.75C17.2394 4.75 16.1604 5.16615 15.2629 5.99844C14.3653 6.83073 13.9165 7.83125 13.9165 9C13.9165 10.1687 14.3653 11.1693 15.2629 12.0016C16.1604 12.8339 17.2394 13.25 18.4998 13.25Z" fill="white"/>
</svg>
